<svg width="366" height="415" viewBox="0 0 366 415" xmlns="http://www.w3.org/2000/svg"><path d="M178.61 78.4005C145.352 78.4005 112.84 88.2627 85.187 106.74C57.5338 125.217 35.9809 151.48 23.2536 182.206C10.5262 212.933 7.1961 246.743 13.6844 279.363C20.1728 311.982 36.1882 341.944 59.7053 365.461C83.2224 388.979 113.185 404.994 145.804 411.482C178.423 417.971 212.234 414.641 242.961 401.913C273.687 389.186 299.949 367.633 318.427 339.98C336.904 312.326 346.766 279.815 346.766 246.557C346.766 201.959 329.05 159.188 297.514 127.652C265.979 96.117 223.208 78.4005 178.61 78.4005V78.4005ZM178.61 335.394C161.001 335.426 143.779 330.233 129.123 320.473C114.467 310.713 103.035 296.825 96.2752 280.566C89.515 264.307 87.7298 246.407 91.1458 229.133C94.5618 211.859 103.025 195.987 115.465 183.525C127.905 171.063 143.763 162.571 161.03 159.124C178.298 155.677 196.201 157.43 212.472 164.162C228.743 170.893 242.652 182.3 252.438 196.938C262.224 211.577 267.447 228.79 267.447 246.398C267.456 269.979 258.105 292.6 241.448 309.292C224.792 325.985 202.191 335.384 178.61 335.426V335.394Z"/></svg>