<svg width="318" height="415" viewBox="0 0 318 415" xmlns="http://www.w3.org/2000/svg"><path d="M296.298 106.192C289.258 99.173 280.861 93.6625 271.62 89.9967C262.38 86.331 252.489 84.587 242.551 84.871H24.3287V408.049H102.569V164.634C102.569 163.372 103.071 162.161 103.963 161.269C104.856 160.376 106.066 159.875 107.328 159.875H233.985C235.247 159.875 236.458 160.376 237.35 161.269C238.243 162.161 238.744 163.372 238.744 164.634V408.049H317.619V159.938C317.903 150.001 316.159 140.11 312.493 130.87C308.827 121.629 303.317 113.232 296.298 106.192V106.192Z"/></svg>