<svg width="359" height="415" viewBox="0 0 359 415" xmlns="http://www.w3.org/2000/svg"><path d="M266.473 98.8964C242.531 85.2262 215.39 78.1536 187.821 78.4004C165.902 78.1669 144.158 82.3118 123.863 90.592C103.567 98.8723 85.1291 111.121 69.6296 126.621C54.1302 142.12 41.8812 160.558 33.601 180.854C25.3207 201.149 21.1758 222.893 21.4093 244.812C21.0118 274.508 28.4997 303.778 43.1089 329.636C57.7181 355.493 78.9256 377.012 104.567 391.996C130.205 406.923 159.393 414.661 189.058 414.396C222.213 414.396 251.879 408.05 277.261 395.93C302.643 383.81 321.68 366.138 333.704 344.056L335.164 341.391L272.724 303.793L271.137 306.681C263.721 319.367 252.545 329.434 239.156 335.489C223.959 342.879 207.257 346.647 190.359 346.499C165.802 346.499 145.02 339.36 128.617 325.241C113.039 311.821 102.854 293.228 98.2854 269.94H340.018L340.526 267.37C342.492 255.844 343.373 244.16 343.159 232.47C343.519 205.368 336.588 178.669 323.092 155.164C309.595 131.66 290.029 112.215 266.442 98.8647L266.473 98.8964ZM130.806 160.575C146.103 149.129 164.821 143.191 183.918 143.728C203.103 143.192 221.874 149.363 236.998 161.178C250.153 171.506 259.477 185.934 263.491 202.17H102.061C107.161 185.69 117.194 171.172 130.806 160.575V160.575Z"/></svg>