<svg width="50" height="50" viewBox="0 0 50 50" fill="none" xmlns="http://www.w3.org/2000/svg">
<rect width="50" height="50" fill="white"/>
<path d="M17.41 35.5V32.68L25.39 24.85C26.31 23.95 26.95 23.19 27.31 22.57C27.67 21.95 27.85 21.28 27.85 20.56C27.85 19.66 27.56 18.94 26.98 18.4C26.4 17.84 25.62 17.56 24.64 17.56C23.66 17.56 22.87 17.83 22.27 18.37C21.67 18.91 21.37 19.63 21.37 20.53C21.37 21.03 21.46 21.51 21.64 21.97L17.8 22.69C17.54 22.05 17.41 21.26 17.41 20.32C17.41 18.6 18.08 17.13 19.42 15.91C20.76 14.69 22.5 14.08 24.64 14.08C26.86 14.08 28.59 14.64 29.83 15.76C31.07 16.88 31.69 18.33 31.69 20.11C31.69 21.49 31.42 22.7 30.88 23.74C30.38 24.74 29.43 25.91 28.03 27.25L23.32 31.84H31.69V35.5H17.41Z" fill="#0E231C"/>
</svg>
