<svg width="50" height="50" viewBox="0 0 50 50" fill="none" xmlns="http://www.w3.org/2000/svg">
<rect width="50" height="50" fill="white"/>
<path d="M17 29.5C17 28.76 17.11 28.14 17.33 27.64L21.08 28.54C21 28.76 20.96 29.05 20.96 29.41C20.96 30.37 21.28 31.14 21.92 31.72C22.58 32.28 23.45 32.56 24.53 32.56C25.67 32.56 26.57 32.27 27.23 31.69C27.89 31.11 28.22 30.29 28.22 29.23C28.22 28.07 27.75 27.2 26.81 26.62C25.87 26.04 24.55 25.75 22.85 25.75V22.81C24.29 22.81 25.4 22.55 26.18 22.03C26.96 21.49 27.35 20.74 27.35 19.78C27.35 19.04 27.08 18.45 26.54 18.01C26.02 17.55 25.31 17.32 24.41 17.32C23.51 17.32 22.77 17.55 22.19 18.01C21.63 18.45 21.35 19.03 21.35 19.75C21.35 20.17 21.41 20.51 21.53 20.77L17.87 21.58C17.67 21 17.57 20.45 17.57 19.93C17.57 18.31 18.21 16.93 19.49 15.79C20.77 14.65 22.42 14.08 24.44 14.08C26.6 14.08 28.26 14.55 29.42 15.49C30.6 16.41 31.19 17.66 31.19 19.24C31.19 20.3 30.9 21.25 30.32 22.09C29.76 22.91 29.02 23.53 28.1 23.95C29.34 24.37 30.33 25.03 31.07 25.93C31.81 26.83 32.18 27.93 32.18 29.23C32.18 31.23 31.47 32.85 30.05 34.09C28.63 35.31 26.79 35.92 24.53 35.92C22.21 35.92 20.37 35.31 19.01 34.09C17.67 32.85 17 31.32 17 29.5Z" fill="#0E231C"/>
</svg>
