<svg width="90" height="90" viewBox="0 0 90 90" fill="none" xmlns="http://www.w3.org/2000/svg">
<circle cx="45" cy="45" r="45" fill="#E14C51"/>
<mask id="mask0_1_384" style="mask-type:alpha" maskUnits="userSpaceOnUse" x="16" y="16" width="59" height="59">
<rect x="29.2754" y="16" width="47" height="47" transform="rotate(16.2004 29.2754 16)" fill="#D9D9D9"/>
</mask>
<g mask="url(#mask0_1_384)">
<path d="M24.6571 56.4643L33.9453 24.4945L45.7135 27.9136C46.135 26.9039 46.8486 26.1485 47.8545 25.6474C48.8601 25.146 49.9192 25.0569 51.0319 25.3801C52.1445 25.7034 52.9912 26.3462 53.5719 27.3085C54.1526 28.2706 54.3443 29.289 54.1469 30.3638L65.9151 33.7828L56.6268 65.7525L24.6571 56.4643ZM28.2975 54.463L54.6255 62.1121L62.2747 35.7841L35.9467 28.135L28.2975 54.463ZM33.8212 51.2438L46.0449 54.7952L46.8643 51.9748L34.6406 48.4234L33.8212 51.2438ZM35.9436 43.9387L53.809 49.1292L54.6286 46.3084L36.7631 41.1179L35.9436 43.9387ZM38.0661 36.6332L55.9315 41.8237L56.7509 39.0033L38.8855 33.8128L38.0661 36.6332ZM49.4678 30.7301C49.8753 30.8485 50.2509 30.8132 50.5948 30.6242C50.9386 30.4352 51.1697 30.1369 51.288 29.7295C51.4064 29.322 51.3711 28.9464 51.1821 28.6026C50.9931 28.2587 50.6949 28.0276 50.2874 27.9093C49.8799 27.7909 49.5043 27.8262 49.1605 28.0152C48.8167 28.2042 48.5856 28.5025 48.4672 28.9099C48.3488 29.3174 48.3841 29.693 48.5731 30.0368C48.7621 30.3806 49.0604 30.6117 49.4678 30.7301Z" fill="white"/>
</g>
</svg>
