<svg width="90" height="90" viewBox="0 0 90 90" fill="none" xmlns="http://www.w3.org/2000/svg">
<circle cx="45" cy="45" r="45" fill="#E14C51"/>
<mask id="mask0_1_406" style="mask-type:alpha" maskUnits="userSpaceOnUse" x="15" y="16" width="60" height="59">
<rect x="29.1123" y="16" width="47" height="47" transform="rotate(16.2 29.1123 16)" fill="#D9D9D9"/>
</mask>
<g mask="url(#mask0_1_406)">
<path d="M52.4663 66.5787C52.2397 66.5129 52.0393 66.4154 51.865 66.2863C51.6905 66.1571 51.5408 65.979 51.4161 65.7521L44.6834 53.5327C44.5585 53.3054 44.4882 53.0836 44.4725 52.8673C44.4571 52.6511 44.4824 52.4297 44.5482 52.2031C44.614 51.9764 44.7114 51.776 44.8402 51.6017C44.9693 51.4274 45.1475 51.278 45.3747 51.1533L49.9719 48.626C50.199 48.5009 50.4206 48.4306 50.6369 48.4149C50.8531 48.3995 51.0745 48.4248 51.3011 48.4906C51.5277 48.5564 51.7282 48.6538 51.9025 48.7826C52.0771 48.9118 52.2267 49.09 52.3513 49.3173L59.0788 61.5545C59.2039 61.7815 59.2742 62.0031 59.2899 62.2194C59.3052 62.436 59.2799 62.6575 59.214 62.8841C59.1482 63.1107 59.0509 63.3112 58.9221 63.4855C58.7929 63.6598 58.6148 63.8092 58.3875 63.9339L53.7955 66.4433C53.5686 66.5681 53.347 66.6383 53.1307 66.654C52.9144 66.6696 52.6929 66.6446 52.4663 66.5787ZM53.4014 63.3601L55.9776 61.9439L50.3815 51.7647L47.8053 53.181L53.4014 63.3601ZM27.3702 59.3187C27.1435 59.2529 26.9396 59.1493 26.7584 59.0079C26.5776 58.8664 26.4247 58.6821 26.2996 58.455L23.7878 53.9133C23.6628 53.686 23.5891 53.4581 23.5668 53.2297C23.5442 53.0008 23.5659 52.7731 23.6317 52.5465C23.6975 52.3199 23.8008 52.1177 23.9414 51.9401C24.0817 51.7626 24.2655 51.6114 24.4928 51.4864L37.1687 44.5178L41.1287 45.6683L43.0982 44.5856L37.5175 34.4343L34.8377 33.6558L31.1352 26.921L37.1514 23.614L40.8539 30.3487L40.0753 33.0285L45.6556 43.1797L52.8338 39.2334L50.8867 35.6908L53.9573 34.0027L49.1694 32.6116L48.4227 31.2807L56.1745 27.0188L56.9033 28.3445L55.5069 33.1508L58.5776 31.4627L63.6073 40.5555C63.9629 41.1843 64.1768 41.8451 64.2488 42.538C64.3207 43.2309 64.2562 43.9232 64.0553 44.6149C63.8787 45.2226 63.6038 45.7775 63.2306 46.2795C62.8573 46.7815 62.4037 47.2046 61.8697 47.5487L59.0859 42.4849L55.6645 44.3658L54.251 41.794L42.5083 48.2496L41.3558 52.2167L28.7082 59.1548C28.4812 59.2795 28.2581 59.3546 28.0386 59.3799C27.8196 59.4049 27.5968 59.3846 27.3702 59.3187ZM28.3189 56.0531L39.4505 49.9338L40.0305 47.9376L38.0338 47.3575L26.9026 53.4769L28.3189 56.0531ZM28.3189 56.0531L26.9026 53.4769L27.6294 54.7551L28.3189 56.0531Z" fill="white"/>
</g>
</svg>
