<svg width="173" height="209" viewBox="0 0 173 209" fill="none" xmlns="http://www.w3.org/2000/svg">
<g clip-path="url(#clip0_1_478)">
<path d="M7 7H173V209H7V7Z" fill="#3065A5"/>
<path d="M0 0H166V202H0V0Z" fill="#60A3F3"/>
<rect x="16" y="178" width="134" height="11" fill="white"/>
<rect x="16" y="161" width="83" height="11" fill="white"/>
<path d="M57.8078 106.243V102.062H69.4317V114.375H63.8168V112.959C62.175 114.243 60.0078 115 57.2167 115C49.5332 115 44.2466 109.897 44.2466 102.852C44.2466 95.8069 49.5332 90.7041 57.2167 90.7041C64.1123 90.7041 69.0048 95.1156 69.4317 100.646H60.6645C60.2376 99.7575 59.1869 99.0003 57.4794 99.0003C55.2794 99.0003 53.8018 100.646 53.8018 102.852C53.8018 105.058 54.8854 107.296 57.4794 107.362C58.563 107.395 59.3182 107.066 59.7779 106.605V106.243H57.8078Z" fill="white"/>
<path d="M32.6806 91.3293H41.4478V114.374H30.4806L24.997 102.918H24.7672V114.374H16V91.3293H27.2627L32.4508 102.786H32.6806V91.3293Z" fill="white"/>
<path d="M70.0471 55.6648H78.8143V78.7097H70.0471V55.6648Z" fill="white"/>
<path d="M57.9887 55.6648H66.7559V78.7097H55.7887L50.3051 67.2531H50.0753V78.7097H41.3081V55.6648H52.5708L57.7589 67.1214H57.9887V55.6648Z" fill="white"/>
<path d="M29.6269 78.7097L26.6717 72.5534C26.1134 72.5534 25.3911 72.5534 24.7672 72.5534V78.7097H16V55.6648C16 55.6648 27.5911 55.6648 27.7224 55.6648C34.3881 55.6648 37.6388 58.4631 37.6388 64.1256C37.6388 67.1873 36.6866 69.393 34.7821 70.7757L39.0179 78.7097H29.6269ZM26.8687 62.2491C26.3761 62.2491 25.5224 62.2491 24.7672 62.2491V65.9692C25.5224 65.9692 26.3761 65.9692 26.8687 65.9692C28.3134 65.9692 29.1015 65.4753 29.1015 64.1256C29.1015 62.7429 28.3134 62.2491 26.8687 62.2491Z" fill="white"/>
<path d="M79.6091 43.0449L78.7553 39.3906H72.5165L71.6628 43.0449H62.2717L69.1673 20H82.1046L89.0001 43.0449H79.6091ZM74.0926 32.5101H77.1792L76.0956 27.8353H75.1762L74.0926 32.5101Z" fill="white"/>
<path d="M59.975 26.9135H49.4018V28.3949H59.0227V34.65H49.4018V36.1314H59.975V43.0449H40.6346V20H59.975V26.9135Z" fill="white"/>
<path d="M24.7672 35.2096H37.8358V43.0449H16V20H24.7672V35.2096Z" fill="white"/>
</g>
<defs>
<clipPath id="clip0_1_478">
<rect width="173" height="209" fill="white"/>
</clipPath>
</defs>
</svg>
